<?xml version="1.0" encoding="UTF-8"?><svg id="b" xmlns="http://www.w3.org/2000/svg" viewBox="0 0 27.22 46.32"><g id="c"><path d="M12.85,34.06h-2.3c-1.1-1.06-1.98-2.22-2.63-3.49-.65-1.27-.97-2.53-.97-3.78,0-1.34.47-3.27,1.33-4.71.86-1.44,1.68-2.4,3.45-3.93,1.39-1.25,2.5-2.33,3.31-3.24.82-.91,1.39-1.78,1.73-2.59.34-.82.5-1.68.5-2.59,0-1.58-.5-2.84-1.51-3.78s-2.35-1.4-4.03-1.4c-1.3,0-2.46.34-3.49,1.01-1.03.67-2.22,1.99-3.56,3.96l-1.66,2.38H.79L0,3.02c1.63-.96,3.58-1.7,5.83-2.23,2.26-.53,4.42-.79,6.48-.79,4.56,0,8.18.92,10.87,2.77,2.69,1.85,4.03,4.33,4.03,7.45,0,1.44-.23,2.8-.68,4.07-.46,1.27-1.19,2.52-2.2,3.74-1.01,1.22-2.33,2.48-3.96,3.78-1.78,1.44-3.23,2.68-4.36,3.71-1.13,1.03-2.39,2.36-2.89,3.15-.5.79-.77,1.44-.77,2.21,0,.53.05.82.17,1.44.12.62.23,1.2.32,1.73ZM11.81,46.32c-1.46,0-2.69-.5-3.69-1.5-1-1-1.5-2.23-1.5-3.69s.5-2.69,1.5-3.69,2.23-1.5,3.69-1.5,2.69.5,3.69,1.5,1.5,2.23,1.5,3.69-.5,2.69-1.5,3.69c-1,1-2.23,1.5-3.69,1.5Z" style="fill:#000; stroke-width:0px;"/></g></svg>