<?xml version="1.0" encoding="UTF-8"?><svg id="b" xmlns="http://www.w3.org/2000/svg" viewBox="0 0 521 506.99"><defs><style>.d{fill:#6d8c50;stroke:#eaf0e4;stroke-miterlimit:10;stroke-width:9px;}</style></defs><g id="c"><path class="d" d="M250.84,152.81C242.8,92.23,204.51,8.38,25.01,4.5c-7.97-.17-15.61,6.39-16.66,14.28-22.99,174.43,59.69,252.35,176.29,258.84,1.79.1,3.18,1.74,3.06,3.53-3.72,55.66-3.08,68.34-15.09,156.94-2.2,16.21-5.91,31.2-31.99,40.11-12.78,4.36-15.42,12.28-16.18,24.23l174.55.03,14.74.03c1.4,0,5.96-17.17-6.09-21.84-22.7-8.81-39.8-6.18-36.7-44.48l6.99-123.24c.11-1.95,1.76-3.24,3.68-2.9,95.92,17.13,210.01-18.13,234.73-192.85,1.07-7.56-3.47-15.05-10.64-17.68-155.1-56.76-230.48-6.19-254.87,53.31Z"/></g></svg>