<?xml version="1.0" encoding="UTF-8"?><svg xmlns="http://www.w3.org/2000/svg" viewBox="0 0 24 24"><path fill="currentColor" d="M6.61,23c-.02-1.12,1.95-.56,2.23-1.97.28-.84.56-3.09,1.12-6.74C3.22,13.45,2.43,6.12,4.34.25c4.24.76,8.59,3.99,8.71,8.54,2.24-2.93,6.92-3.05,10.39-1.8,0,1.4-.56,4.49-1.12,5.9-.28.84-1.12,2.25-1.97,3.09s-2.25,1.68-3.37,1.97c-.84.28-2.53.56-4.21.28-.28,1.97-.28,2.81,0,3.37s1.96.55,1.97,1.12c0,0,0,.28-.06.28H6.61ZM13.05,15.7c5.62.84,7.02-3.65,7.02-6.74-4.49-.28-6.18,2.81-7.02,6.74ZM10.24,12.04c.28-2.53.28-6.46-3.93-8.14-.84,3.65.28,7.58,3.93,8.14Z"/></svg>