<?xml version="1.0" encoding="UTF-8"?><svg id="a" xmlns="http://www.w3.org/2000/svg" viewBox="0 0 24 24"><defs><style>.b{fill:#000;stroke-width:0px;}</style></defs><path class="b" d="M6.54,23.62c-.02-1.1,1.91-.55,2.18-1.93.27-.82.29-1.6,1.02-6.52C3.26,14.25,2.45,7.11,4.32,1.37c4.41,1.08,8.4,3.56,8.38,8.9,2.45-3.55,6.76-3.74,10.31-2.3-.14,6.33-2.86,12.01-10.41,11-.2,1.94-.14,2.54-.02,3.29.1.67,2.28.57,1.87,1.37h-7.89ZM12.92,16.49c5.37,1.03,6.93-2.86,7.22-6.3-3.4-1.42-6.65,2.91-7.22,6.3ZM10.07,12.88c.17-1.22.26-6.62-4.06-7.95-.52,3.66.46,7.56,4.06,7.95Z"/></svg>