<?xml version="1.0" encoding="UTF-8"?><svg xmlns="http://www.w3.org/2000/svg" viewBox="0 0 19.56 22.25"><defs><style>.b{fill:#000;stroke-width:0px;}</style></defs><path class="b" d="M3.1,22.25c-.02-1.1,1.91-.55,2.18-1.93.27-.82.29-1.6,1.02-6.52C-.18,12.88-.99,5.74.88,0c4.41,1.08,8.4,3.56,8.38,8.9,2.45-3.55,6.76-3.74,10.31-2.3-.14,6.33-2.86,12.01-10.41,11-.2,1.94-.14,2.54-.02,3.29.1.67,2.28.57,1.87,1.37H3.1ZM9.48,15.12c5.37,1.03,6.93-2.86,7.22-6.3-3.4-1.42-6.65,2.91-7.22,6.3ZM6.63,11.51c.17-1.22.26-6.62-4.06-7.95-.52,3.66.46,7.56,4.06,7.95Z"/></svg>