<?xml version="1.0" encoding="UTF-8"?><svg xmlns="http://www.w3.org/2000/svg" viewBox="0 0 24 24"><path fill="currentColor" d="M6.54,23.5c-.02-1.1,1.91-.55,2.18-1.93.27-.82.55-3.02,1.1-6.59C3.22,14.16,2.45,6.99,4.32,1.25c4.15.74,8.4,3.9,8.52,8.35,2.19-2.87,6.77-2.98,10.16-1.76,0,1.37-.55,4.39-1.1,5.77-.27.82-1.1,2.2-1.93,3.02s-2.2,1.64-3.3,1.93c-.82.27-2.47.55-4.12.27-.27,1.93-.27,2.75,0,3.3s1.92.54,1.93,1.1c0,0,0,.27-.06.27h-7.89ZM12.84,16.36c5.5.82,6.87-3.57,6.87-6.59-4.39-.27-6.04,2.75-6.87,6.59ZM10.09,12.78c.27-2.47.27-6.32-3.84-7.96-.82,3.57.27,7.41,3.84,7.96Z"/></svg>