<?xml version="1.0" encoding="UTF-8"?><svg id="b" xmlns="http://www.w3.org/2000/svg" viewBox="0 0 34.99 32.24"><defs><style>.d{fill:#eaf0e4;stroke-width:0px;}</style></defs><g id="c"><path class="d" d="M34.87,8.66c-7-4.24-13.96-3.64-18.31.36C14.61,3.45,8.77-.41.6.03c-.11.01-.21.09-.23.2-1.66,10.8,2.47,16.14,9.21,17.8,1.05.2,2.03.69,2.03,1.16.01,1.52-.64,2.41-1.1,9.22-.04.54-.27,1.31-1.87,1.85-.78.27-1.01,1.24-1.06,1.97h11.68c.08,0,.35-1.53-.39-1.82-1.39-.54-2.41-.28-2.63-2.71-.25-2.81.13-6.11.46-7.08.16-.48.52-.64.9-.74.42-.11.94.05,2.47.33,5.91,1.08,11.66-1.96,14.91-11.26.04-.1-.02-.22-.11-.28ZM10.44,12.39c-.72-2.39-1.77-5.02-4.44-7.13-2.73-2.13-1.41-2.1,1.03-.9,1.72.87,4.69,3.6,5.56,7.08.46,2.72-1.84,1.96-2.14.94ZM27.69,10.77c-3.35.62-5.62,2.36-7.38,4.14-.75.76-3.01-.1-1.24-2.09,2.28-2.63,6.1-3.41,8.13-3.47,4.05,0,4.39.83.49,1.43Z"/></g></svg>