<?xml version="1.0" encoding="UTF-8"?><svg id="b" xmlns="http://www.w3.org/2000/svg" viewBox="0 0 31.5 30.57"><defs><style>.d{fill:#6d8c50;stroke-width:0px;}</style></defs><g id="c"><path class="d" d="M15.03,8.55C14.36,4.82,11.62.03.56,0c-.1,0-.21.09-.22.19-1.67,10.81,3.07,15.83,9.98,16.52.53.05.91.54.87,1.07-.18,2.78-.2,3.85-.88,8.84-.13.99-.36,1.92-1.96,2.46-.78.27-.95.75-.99,1.49h10.71s.9,0,.9,0c.09,0,.37-1.05-.37-1.34-1.39-.54-2.44-.38-2.25-2.73l.38-6.68c.03-.57.53-1,1.1-.93,5.82.72,12.4-1.83,13.67-12.59.01-.1-.05-.19-.14-.23-9.42-3.65-14.61-.91-16.05,2.51-.06.14-.25.12-.28-.03Z"/></g></svg>