<?xml version="1.0" encoding="UTF-8"?><svg id="b" xmlns="http://www.w3.org/2000/svg" viewBox="0 0 84.37 33.42"><g id="c"><g id="d"><path d="M42.18,5.53c-2.61.08-5.5,1.38-6.41,3.21C30.76-1.82,16.99-1.39,9.95,2.62l-1.97.82c-1.38.36-2.73.97-7.81,1.48-.15.02-.25,2.82-.1,2.9,1.39.68,3.16.18,2.92,4.49-.58,10.75,3.58,21.11,17.3,21.11,9.49,0,14.11-4.87,16.8-15,1.12-4.26,1.65-8.96,5.09-8.96s3.97,4.7,5.09,8.96c2.69,10.13,7.32,15,16.8,15,13.72,0,17.88-10.36,17.3-21.11-.24-4.31,1.53-3.81,2.92-4.49.15-.08.05-2.88-.1-2.9-5.08-.51-6.43-1.12-7.81-1.48l-1.97-.82c-7.04-4.01-20.81-4.44-25.82,6.12-.91-1.83-3.79-3.21-6.41-3.21M19.96,30.35c-12.4,0-15.44-27.29,1.1-27.29,14.25,0,12.43,27.29-1.1,27.29ZM64.4,30.35c-13.53,0-15.35-27.29-1.1-27.29,16.54,0,13.5,27.29,1.1,27.29Z" style="fill:#000; stroke-width:0px;"/></g></g></svg>