<?xml version="1.0" encoding="UTF-8"?><svg id="b" xmlns="http://www.w3.org/2000/svg" viewBox="0 0 336.8 60.82"><defs><style>.d{fill:#f0efeb;}.d,.e{stroke-width:0px;}.e{fill:#648944;}</style></defs><g id="c"><path class="e" d="M326.61,29.57c4.3,1.28,6.94-3.22,7.2-4.96-2.46-.52-6.34,3.42-7.2,4.96Z"/><path class="d" d="M321.79,29.82c1.8-6.53,8.45-10.15,15.01-7.96-.4,6.1-4.54,12.12-11.57,10.44-.4-.09-.61-.16-.83.21-2.81,4.57-4.13,9.76-4.93,14.98-2.2.24-4.38.47-6.67.72,1.02-7.17,2.03-14.27,3.04-21.37-.06-.05-.11-.09-.17-.14-1.66.78-3.31,1.56-4.99,2.35-.19-.52-.76-1.25-.33-1.7,2.86-2.48,5.81-5.82,9.84-6.04,3.86.28,1.98,5.17,1.49,7.6q-.12.65.1.9ZM326.61,29.57c4.3,1.28,6.94-3.22,7.2-4.96-2.46-.52-6.34,3.42-7.2,4.96Z"/><path class="d" d="M292.63,37.01c-.04,3.93,2.43,7.91,6.78,6.87,2.73-.52,4.97-2,7.04-3.78.8,1.03,1.08,1.3.79,1.69-3.14,4.28-8.63,7.68-14.71,6.02-3.52-.96-5.86-3.29-6.71-6.76-1.57-6.39-.13-12.11,4.91-16.51,3.74-3.27,8.64-3.6,12.97-2.54,2.95.92,4.58,3.15,4.61,5.89.03,2.61-1.15,4.62-3.16,6.19-3.56,2.72-8.12,3.31-12.51,2.94ZM292.6,34.65c3.51.44,6.66-1.02,8.4-3.51,1.38-1.97,1.81-5.34-.49-6.8-.29-.18-.59-.24-.94-.18-4.65,1.06-6.58,6.19-6.97,10.49Z"/><path class="d" d="M269.59,25.18h-4.95c0-.66,0-2.63.79-2.69,1.27-.16,2.53-.38,3.79-.5.66-.07,1.12-.33,1.55-.83,1.9-2.22,3.84-4.4,5.75-6.59,1.03.35,1.11.48.97,1.48-.26,1.91-.52,3.83-.79,5.83h7.66c-.16,1.14-.3,2.19-.46,3.3h-7.72c-.78,5.73-1.84,11.38-2.37,17.13-.04,1.17.56,1.71,1.72,1.6,2.42-.42,4.42-2.05,6.7-3.02.31.52.86,1.34.33,1.76-3.32,2.79-7.15,6.32-11.83,5.54-2.09-.35-3.27-1.66-3.55-3.77-.22-1.66.07-3.28.31-4.91.66-4.79,1.5-9.52,2.09-14.32Z"/><path class="d" d="M262.54,40.54c.72,1.26.76,1.49-.37,2.42-2.7,2.24-5.52,5-9.19,5.31-1.78.08-2.69-.89-2.52-2.66,1.1-9.65,2.91-19.22,4.07-28.86.48-2.91-2.07-2.51-4.01-2.76.02-.56-.03-1.51.46-1.66,3.24-1,6.47-2.02,9.71-3.02.6-.19,1.41.53,1.32,1.17-1.49,10.52-3.02,21.03-4.52,31.54-.06.64.12.83.78.56,1.43-.67,2.85-1.35,4.26-2.03Z"/><path class="d" d="M242.02,27.61c1.18-3.56,2.74-4.97,6.28-4.36.36,3.35-1.82,5.92-4.36,5.7-.66,4.73-1.27,8.3-1.9,13.05-.04.26-.14.52.08.88,1.63-.77,3.26-1.55,4.96-2.35.41.62.71,1.51.4,1.75-2.92,2.32-5.71,5.73-9.66,6-1.63,0-2.55-.89-2.51-2.51.13-2.65.83-5.23,1.23-7.85.09-.53.08-.53-.45-.74-2.15,4.29-4.31,10.04-9.69,11-2.66.41-4.88-.39-6.51-2.6-1.1-1.49-1.61-3.2-1.72-5.01-.44-7.04,1.98-12.78,8.02-16.67,4.44-2.87,9.22-2.95,14.28-1.64q2.03.52,2.01,1.78c-.03,1.41-.46,3.52-.46,3.56ZM225.3,38.16c0,1.21.07,2.17.34,3.11.78,2.75,2.71,3.26,4.74,1.26,3.85-4.23,5.6-9.94,7.05-15.37.53-2.17.51-2.11-1.64-2.86-1.34-.47-2.53-.28-3.72.37-4.65,2.73-6.66,8.53-6.76,13.49Z"/><path class="d" d="M216,23.52c-.51,1.61-.99,3.17-1.5,4.73-.16.48-1.14.49-1.55.01-.9-1.05-1.82-2.08-2.67-3.16-.41-.52-.89-.81-1.54-.88-1.1-.12-2.18-.12-3.22.33-1.48.63-1.97,1.8-1.41,3.32.26.7.73,1.24,1.28,1.71,2.29,2.02,5.12,3.29,7.39,5.35,3.47,3.06,2.85,8.65-.83,11.2-4.74,3.1-11.02,2.49-15.96.15-.57-.28-.72-.56-.5-1.18.47-1.31.84-2.66,1.28-3.99.08-.24.1-.6.43-.65.46-.06.97-.2,1.36.3,1.01,1.27,2.08,2.5,3.1,3.76,1.41,1.31,3.78.99,5.38.15,2.11-1.2,2.42-3.34.75-5.09-2.36-2.46-5.76-3.54-8.06-6.07-1.84-1.98-2.31-4.3-1.64-6.87.41-1.56,1.41-2.72,2.74-3.6,4.57-2.74,10.64-2.14,15.16.45Z"/><path class="e" d="M8.93,17.24c-.39-4.55-.94-10.01-5.9-12.83-.52,8.66,2.51,12.06,5.9,12.83Z"/><path class="d" d="M195.88,12.91c-7.56-3.64-17.24-4.38-22.35,4.07-1.95-9.07-7.42-12.49-15.99-12.31.45,11,5.54,15.63,10.89,15.65.79,3.34.76,11.72-.78,21.86-.15,2.32-2.41,3.42-4.04,3.81-.67.16-.52,1.15-.59,1.72h15.21c.21-.22.38-1.43.26-1.54-1.56-.84-4.19-1.29-3.91-3.56.3-2.58.65-5.17.97-7.81,1.7.41,8.13.11,9.42-.29,6.72-1.7,10.95-7.65,11.72-14.38.5-4.38.77-6.63-.79-7.22ZM160.64,7.91c3.64,1.17,5.82,4.54,7.29,9.07-4.12-.18-6.79-4.54-7.29-9.07ZM190.09,18.27c-.55,2.91-1.26,9.89-7,12.84-2.56,1.1-5.85.68-7.13.53,1.91-10.7,4.17-15.62,9.08-17.31,1.71-.5,2.25-.44,4.08.31,1.25.55,1.22.96.98,3.63Z"/><path class="e" d="M25.92,9.98c-3.34,1.38-4.36,2.97-6.69,8.14,3.96-.3,6.69-4.36,6.69-8.14Z"/><path class="d" d="M149.67,28.93c.35-2.86.37-4.68.13-5.36-.17-.48-.57-.73-1.59-1.12-9.37-3.33-20.34,3.6-21.54,13.42-1.03,6.19.48,12.04,6.72,12.37-2.99.86-5.81,1.52-8.42,3.15-2.9,1.88-2.61,5.7-.33,7.13,4.46,2.79,10.19,2.71,15.1,1.49,10.83-3.28,9.73-16.39,11.43-25.49,5.95.37,8.32-3.92,7.98-10.16-4.5-.59-8.44.79-9.48,4.58ZM142.55,50.02c-.82,4.21-3.74,8.84-8.59,8.29-2.51-.19-4.11-2.29-3.5-4.6.46-1.55,2.03-2.25,3.26-3.11,5.17-3,8.42-7.63,10.49-13.14.2.07.34.13.48.18-.57,4.11-1.3,8.28-2.14,12.38ZM146.01,25.94c-1.43,6.04-3.18,12.51-7.73,17-1.64,1.32-3.34.89-4.16-1.05-1.75-6,.94-14.51,7.09-17.28,1.52-.66,3.1.17,4.5.77.26.12.37.25.3.56ZM151.55,32.34c.64-2.85,2.56-4.58,5.11-5.69.02,2.18-.77,5.6-5.11,5.69Z"/><path class="d" d="M102.79,47.5c-2.2.25-4.38.51-6.67.77,1.02-7.18,2.03-14.3,3.04-21.42-.05-.05-.11-.1-.16-.14-1.66.78-3.31,1.56-4.99,2.35-.26-.41-.33-.86-.5-1.27-.08-.2.04-.31.16-.42,2.8-2.46,5.66-5.67,9.59-6.04,1.65-.05,2.54.81,2.54,2.46-.14,2.69-.75,5.33-1.21,7.98-.09.44.09.6.49.7,2.2-4.98,5.38-11.31,11.69-11.14,2.95.03,4.86,1.89,4.95,4.85-.14,5.38-1.57,10.65-2.3,15.97-.03.2-.11.42.11.56.2.13.35-.03.51-.1,1.47-.69,2.93-1.38,4.46-2.1.17.45.31.85.48,1.24.08.18.05.3-.09.43-3.01,2.51-6.1,5.83-10.26,6.09-1.46,0-2.32-.81-2.32-2.28.28-5.9,2.4-11.65,2.51-17.55-.16-2.31-3-1.75-4.17-.55-4.9,4.19-6.14,12.87-7.87,19.61Z"/><path class="d" d="M86.9,17.52c-2.57,0-4.14-2.21-3.44-4.83.63-2.36,3.16-3.92,5.54-3.42,2.21.46,3.31,2.71,2.5,5.09-.65,1.92-2.46,3.16-4.61,3.15Z"/><path class="d" d="M82.58,26.78c-1.66.79-3.28,1.56-4.97,2.37-.18-.43-.34-.85-.53-1.25-.11-.23,0-.34.15-.46,2.9-2.43,5.82-5.41,9.72-6.03,1.93-.24,3.11.9,2.83,2.85-.9,6.05-1.91,12.09-2.86,18.14-.02.14-.06.29.16.45,1.6-.75,3.24-1.53,4.94-2.33.23.6.62,1.51.11,1.95-2.84,2.41-5.72,5.37-9.7,5.8-1.78.08-2.68-.85-2.56-2.64.65-6.06,1.9-12.05,2.79-18.08.03-.21.12-.44-.08-.76Z"/><path class="d" d="M65.08,40.11c2.07-3.73,4.52-7.21,5.64-11.37.41-1.28-.79-2.27-1.23-3.39-.55-.88-.08-2.07.97-2.31,1.35-.43,2.67-.97,3.98-1.51.42-.17.64-.07.86.27,1.04,1.6,1.48,3.4.74,5.13-3.03,7.14-7.6,13.31-11.67,19.74-.09.13-.16.29-.34.35-1.19.39-2.37.78-3.63,1.19-1.5-7.08-3.2-14.03-5.68-20.83-.25-.69-.32-.71-.95-.31-1.25.8-2.49,1.6-3.79,2.43-.35-.4-.68-.78-1.04-1.19,2.38-2.76,4.71-6.69,8.69-6.99,1.21.01,2.09.52,2.66,1.58,2.26,5.32,3.33,11.09,4.56,16.73.03.14.02.29.22.47Z"/><path class="d" d="M43.79,17.52c-2.58,0-4.16-2.16-3.49-4.79.61-2.38,3.19-3.97,5.58-3.45,2.04.45,3.14,2.4,2.61,4.64-.52,2.16-2.39,3.6-4.7,3.6Z"/><path class="d" d="M48.84,40.53c.66,1.29.75,1.52-.41,2.44-2.7,2.2-5.5,4.94-9.14,5.29-1.78.08-2.68-.85-2.56-2.64.65-6.06,1.9-12.05,2.79-18.08.03-.21.12-.44-.08-.76-1.64.78-3.27,1.55-4.97,2.36-.18-.43-.34-.84-.53-1.24-.11-.23,0-.34.15-.46,2.9-2.43,5.82-5.41,9.72-6.03,1.93-.24,3.11.9,2.83,2.85-.9,6.05-1.91,12.09-2.86,18.14-.02.14-.06.29.16.45,1.6-.75,3.24-1.53,4.91-2.31Z"/><path class="e" d="M151.55,32.34c.64-2.85,2.56-4.58,5.11-5.69.02,2.18-.77,5.6-5.11,5.69Z"/><path class="e" d="M160.64,7.91c3.64,1.17,5.82,4.54,7.29,9.07-4.12-.18-6.79-4.54-7.29-9.07Z"/><path class="d" d="M.54,0c9.17,1.11,14.13,6,15.13,14.35,2.64-5.17,5.66-7.71,13.02-7.15.37,6.86-2.77,13.27-10.1,13.4-.72,2.04-2.34,13.91-3.41,21.82-.16,1.5.44,2.15,1.96,2.17,2.22.02,4.45.01,6.67,0,3.72-.05,5.58-4.03,7.67-6.56.6-.83,1.25-1.01,2.21-.8-.84,3.3-1.74,6.58-2.59,9.88-.1.4-.25.56-.7.56-8.84-.01-17.68-.01-26.52-.01-.18,0-.37.04-.54-.06-.35-1.98,1.47-1.9,2.71-2.63,1.21-.53,1.8-1.5,1.98-2.77.96-7.08,1.48-17.73,1.05-21.69C-1.4,17.38-.37,7.89.54,0ZM8.93,17.24c-.39-4.55-.94-10.01-5.9-12.83-.52,8.66,2.51,12.06,5.9,12.83ZM25.92,9.98c-3.34,1.38-4.36,2.97-6.69,8.14,3.96-.3,6.69-4.36,6.69-8.14Z"/></g></svg>