<?xml version="1.0" encoding="UTF-8"?>
<svg id="b" xmlns="http://www.w3.org/2000/svg" viewBox="0 0 339.63 61.37">
    <defs>
        <style>
            .d{fill:#f0efeb;stroke-width:0;}
            .e{fill:#6E8643;stroke:#AEB490;stroke-width:1;}
        </style>
    </defs>
    <g id="c">
        <path class="e" d="M324.15,27.85c1.97-7.9,10.44-7.3,14.86-2.3-3.94,6.32-8.56,7.32-13.26,5.48"/>
        <path class="e" d="M242.56,28.16c.36-4.07,3.24-6.4,7.58-4.96.88,3.61-1.9,7.38-5.73,6.82"/>
        <path class="e" d="M173.55,17.82c-.59-9.01-6.48-13.88-15.58-11.44-.89,9.62,4.8,14.49,11.45,14.49"/>
        <path class="e" d="M151.71,35.07c5.95.37,8.73-3.38,8.4-9.62-5.65-1.11-9.62.97-10.15,5.71"/>
        <path class="e" d="M10.55,21.38C.07,18.25-.31,9.87,1.08.55c9.17,1.11,15.71,6.41,15.13,14.35.69-4.73,7.92-9.15,13.51-6.22.67,6.91-3.26,12.34-10.59,12.46"/>
        <path class="d" d="M322.33,30.38l.36-.02c1.68-3.97,6.76-8.71,12.25-5.87.22.11.17.47-.07.46-8.85-.08-11.7,10.8-14.84,23.01l-.11.1c-2.11.23-4.21.45-6.4.69-.09,0-.16-.07-.15-.15,1-7.03,1.99-14,2.99-20.97l-.35-.26c-1.58.74-3.17,1.49-4.77,2.24-.19-.52-.76-1.25-.33-1.7,2.86-2.48,5.81-5.82,9.84-6.04,3.86.28,1.98,5.17,1.49,7.6q-.12.65.1.9Z"/>
        <path class="d" d="M293.17,37.57c-.04,3.93,2.43,7.91,6.78,6.87,2.73-.52,4.97-2,7.04-3.78.8,1.03,1.08,1.3.79,1.69-3.14,4.28-8.63,7.68-14.71,6.02-3.52-.96-5.86-3.29-6.71-6.76-1.57-6.39-.13-12.11,4.91-16.51,3.74-3.27,8.64-3.6,12.97-2.54,2.95.92,4.58,3.15,4.61,5.89.03,2.61-1.15,4.62-3.16,6.19-3.56,2.72-8.12,3.31-12.51,2.94ZM293.14,35.21c3.51.44,6.66-1.02,8.4-3.51,1.38-1.97,1.81-5.34-.49-6.8-.29-.18-.59-.24-.94-.18-4.65,1.06-6.58,6.19-6.97,10.49Z"/>
        <path class="d" d="M270.12,25.73h-4.95c0-.66,0-2.63.79-2.69,1.27-.16,2.53-.38,3.79-.5.66-.07,1.12-.33,1.55-.83,1.9-2.22,3.84-4.4,5.75-6.59,1.03.35,1.11.48.97,1.48-.26,1.91-.52,3.83-.79,5.83h7.66c-.16,1.14-.3,2.19-.46,3.3h-7.72c-.78,5.73-1.84,11.38-2.37,17.13-.04,1.17.56,1.71,1.72,1.6,2.42-.42,4.42-2.05,6.7-3.02.31.52.86,1.34.33,1.76-3.32,2.79-7.15,6.32-11.83,5.54-2.09-.35-3.27-1.66-3.55-3.77-.22-1.66.07-3.28.31-4.91.66-4.79,1.5-9.52,2.09-14.32Z"/>
        <path class="d" d="M263.07,41.09c.72,1.26.76,1.49-.37,2.42-2.7,2.24-5.52,5-9.19,5.31-1.78.08-2.69-.89-2.52-2.66,1.1-9.65,2.91-19.22,4.07-28.86.48-2.91-2.07-2.51-4.01-2.76.02-.56-.03-1.51.46-1.66,3.24-1,6.47-2.02,9.71-3.02.6-.19,1.41.53,1.32,1.17-1.49,10.52-3.02,21.03-4.52,31.54-.06.64.12.83.78.56,1.43-.67,2.85-1.35,4.26-2.03Z"/>
        <path class="d" d="M242.56,28.16l.19.12c1.59-2.92,2.72-3.27,3.68-3.52.38-.09.63.45.29.75-1.34,1.35-2,2.76-2.32,4.5-.69,4.72-1.19,7.78-1.82,12.53-.04.26-.14.52.08.88,1.63-.77,3.26-1.55,4.96-2.35.41.62.71,1.51.4,1.75-2.92,2.32-5.71,5.73-9.66,6-1.63,0-2.55-.89-2.51-2.51.13-2.65.83-5.23,1.23-7.85.09-.53.08-.53-.45-.74-2.15,4.29-4.31,10.04-9.69,11-2.66.41-4.88-.39-6.51-2.6-1.1-1.49-1.61-3.2-1.72-5.01-.44-7.04,1.98-12.78,8.02-16.67,4.44-2.87,9.22-2.95,14.28-1.64q2.03.52,2.01,1.78c-.03,1.41-.46,3.52-.46,3.56ZM225.84,38.72c0,1.21.07,2.17.34,3.11.78,2.75,2.71,3.26,4.74,1.26,3.85-4.23,5.6-9.94,7.05-15.37.53-2.17.51-2.11-1.64-2.86-1.34-.47-2.53-.28-3.72.37-4.65,2.73-6.66,8.53-6.76,13.49Z"/>
        <path class="d" d="M216.54,24.08c-.51,1.61-.99,3.17-1.5,4.73-.16.48-1.14.49-1.55.01-.9-1.05-1.82-2.08-2.67-3.16-.41-.52-.89-.81-1.54-.88-1.1-.12-2.18-.12-3.22.33-1.48.63-1.97,1.8-1.41,3.32.26.7.73,1.24,1.28,1.71,2.29,2.02,5.12,3.29,7.39,5.35,3.47,3.06,2.85,8.65-.83,11.2-4.74,3.1-11.02,2.49-15.96.15-.57-.28-.72-.56-.5-1.18.47-1.31.84-2.66,1.28-3.99.08-.24.1-.6.43-.65.46-.06.97-.2,1.36.3,1.01,1.27,2.08,2.5,3.1,3.76,1.41,1.31,3.78.99,5.38.15,2.11-1.2,2.42-3.34.75-5.09-2.36-2.46-5.76-3.54-8.06-6.07-1.84-1.98-2.31-4.3-1.64-6.87.41-1.56,1.41-2.72,2.74-3.6,4.57-2.74,10.64-2.14,15.16.45Z"/>
        <path class="d" d="M196.12,13.74c-7.56-3.64-17.24-4.38-22.35,4.07l-.51.29c-.38.21-.8.07-.97-.35-1.59-3.89-4.49-8.17-9.23-9.52-.28-.08-.44.32-.21.48,4.55,3.04,6.38,7.97,6.59,12.17.12,4.77,0,12-1.55,22.14-.15,2.32-2.41,3.42-4.04,3.81-.67.16-.52,1.15-.59,1.72h15.21c.19-.21.36-1.28.28-1.5,0-.03-.03-.04-.06-.06-1.56-.82-4.15-1.29-3.87-3.54.3-2.52.63-5.04.94-7.62.01-.1.1-.17.2-.15,1.93.36,7.99.06,9.24-.33,6.72-1.7,10.95-7.65,11.72-14.38.5-4.38.77-6.63-.79-7.22ZM190.33,19.09v.03c-.56,2.92-1.27,9.88-7.01,12.83-2.45,1.06-5.59.71-6.97.55-.09-.01-.15-.1-.13-.19,1.9-10.58,4.17-15.45,9.05-17.14,1.71-.5,2.25-.44,4.08.31,1.25.55,1.22.96.98,3.62Z"/>
        <path class="d" d="M149.95,31.16c.35-2.86.63-6.36.39-7.04-.17-.48-.57-.73-1.59-1.12-9.37-3.33-20.34,3.6-21.54,13.42-1.03,6.19.48,12.04,6.72,12.37-2.99.86-5.81,1.52-8.42,3.15-2.9,1.88-2.61,5.7-.33,7.13,4.46,2.79,10.19,2.71,15.1,1.49,10.83-3.28,9.73-16.39,11.43-25.49.68-3.15,3.12-6.37,4.51-7.32.22-.12.17-.5-.16-.45-2.08.24-4.12,1.58-5.81,4.08-.3-.2-.3-.21-.3-.21ZM143.09,50.58c-.82,4.21-3.74,8.84-8.59,8.29-2.51-.19-4.11-2.29-3.5-4.6.46-1.55,2.03-2.25,3.26-3.11,5.17-3,8.42-7.63,10.49-13.14.2.07.34.13.48.18-.57,4.11-1.3,8.28-2.14,12.38ZM146.55,26.5c-1.43,6.04-3.18,12.51-7.73,17-1.64,1.32-3.34.89-4.16-1.05-1.75-6,.94-14.51,7.09-17.28,1.52-.66,3.1.17,4.5.77.26.12.37.25.3.56Z"/>
        <path class="d" d="M103.33,48.06c-2.2.25-4.38.51-6.67.77,1.02-7.18,2.03-14.3,3.04-21.42-.05-.05-.11-.1-.16-.14-1.66.78-3.31,1.56-4.99,2.35-.26-.41-.33-.86-.5-1.27-.08-.2.04-.31.16-.42,2.8-2.46,5.66-5.67,9.59-6.04,1.65-.05,2.54.81,2.54,2.46-.14,2.69-.75,5.33-1.21,7.98-.09.44.09.6.49.7,2.2-4.98,5.38-11.31,11.69-11.14,2.95.03,4.86,1.89,4.95,4.85-.14,5.38-1.57,10.65-2.3,15.97-.03.2-.11.42.11.56.2.13.35-.03.51-.1,1.47-.69,2.93-1.38,4.46-2.1.17.45.31.85.48,1.24.08.18.05.3-.09.43-3.01,2.51-6.1,5.83-10.26,6.09-1.46,0-2.32-.81-2.32-2.28.28-5.9,2.4-11.65,2.51-17.55-.16-2.31-3-1.75-4.17-.55-4.9,4.19-6.14,12.87-7.87,19.61Z"/>
        <path class="d" d="M87.44,18.08c-2.57,0-4.14-2.21-3.44-4.83.63-2.36,3.16-3.92,5.54-3.42,2.21.46,3.31,2.71,2.5,5.09-.65,1.92-2.46,3.16-4.61,3.15Z"/>
        <path class="d" d="M83.12,27.33c-1.66.79-3.28,1.56-4.97,2.37-.18-.43-.34-.85-.53-1.25-.11-.23,0-.34.15-.46,2.9-2.43,5.82-5.41,9.72-6.03,1.93-.24,3.11.9,2.83,2.85-.9,6.05-1.91,12.09-2.86,18.14-.02.14-.06.29.16.45,1.6-.75,3.24-1.53,4.94-2.33.23.6.62,1.51.11,1.95-2.84,2.41-5.72,5.37-9.7,5.8-1.78.08-2.68-.85-2.56-2.64.65-6.06,1.9-12.05,2.79-18.08.03-.21.12-.44-.08-.76Z"/>
        <path class="d" d="M65.62,40.66c2.07-3.73,4.52-7.21,5.64-11.37.41-1.28-.79-2.27-1.23-3.39-.55-.88-.08-2.07.97-2.31,1.35-.43,2.67-.97,3.98-1.51.42-.17.64-.07.86.27,1.04,1.6,1.48,3.4.74,5.13-3.03,7.14-7.6,13.31-11.67,19.74-.09.13-.16.29-.34.35-1.19.39-2.37.78-3.63,1.19-1.5-7.08-3.2-14.03-5.68-20.83-.25-.69-.32-.71-.95-.31-1.25.8-2.49,1.6-3.79,2.43-.35-.4-.68-.78-1.04-1.19,2.38-2.76,4.71-6.69,8.69-6.99,1.21.01,2.09.52,2.66,1.58,2.26,5.32,3.33,11.09,4.56,16.73.03.14.02.29.22.47Z"/>
        <path class="d" d="M44.33,18.08c-2.58,0-4.16-2.16-3.49-4.79.61-2.38,3.19-3.97,5.58-3.45,2.04.45,3.14,2.4,2.61,4.64-.52,2.16-2.39,3.6-4.7,3.6Z"/>
        <path class="d" d="M49.38,41.09c.66,1.29.75,1.52-.41,2.44-2.7,2.2-5.5,4.94-9.14,5.29-1.78.08-2.68-.85-2.56-2.64.65-6.06,1.9-12.05,2.79-18.08.03-.21.12-.44-.08-.76-1.64.78-3.27,1.55-4.97,2.36-.18-.43-.34-.84-.53-1.24-.11-.23,0-.34.15-.46,2.9-2.43,5.82-5.41,9.72-6.03,1.93-.24,3.11.9,2.83,2.85-.9,6.05-1.91,12.09-2.86,18.14-.02.14-.06.29.16.45,1.6-.75,3.24-1.53,4.91-2.31Z"/>
        <path class="d" d="M5.84,4.6c4.05,1.61,8.49,7.83,8.91,16.03l.62-.1c.22-.05.41-.2.48-.41,1.36-4.28,4.57-9.16,9.9-10.26.22-.04.34.26.16.39-4.3,3.13-6.24,7.9-6.78,10.9-.32.89-2.34,13.91-3.41,21.82-.16,1.5.44,2.15,1.96,2.17,2.22.02,4.45.01,6.67,0,3.72-.05,5.58-4.03,7.67-6.56.6-.83,1.25-1.01,2.21-.8-.84,3.3-1.74,6.58-2.59,9.88-.1.4-.25.56-.7.56-8.84-.02-17.68-.01-26.52-.01-.18,0-.37.04-.54-.06-.35-1.98,1.47-1.9,2.71-2.63,1.21-.53,1.8-1.5,1.98-2.77.96-7.08,2.09-17.41,1.99-21.37-.12-3.68.03-9.8-4.85-16.57-.08-.11.03-.26.15-.21Z"/>
    </g>
</svg>